<?xml version="1.0" encoding="UTF-8"?>
<!DOCTYPE svg PUBLIC "-//W3C//DTD SVG 1.1//EN" "http://www.w3.org/Graphics/SVG/1.1/DTD/svg11.dtd">
<svg xmlns="http://www.w3.org/2000/svg" version="1.1" width="500px" height="500px" style="shape-rendering:geometricPrecision; text-rendering:geometricPrecision; image-rendering:optimizeQuality; fill-rule:evenodd; clip-rule:evenodd" xmlns:xlink="http://www.w3.org/1999/xlink">
<g><path style="opacity:1" fill="#18999f" d="M 299.5,91.5 C 295.793,91.2085 292.293,90.2085 289,88.5C 287.954,90.0905 286.787,91.5905 285.5,93C 284.551,93.6172 283.718,93.4506 283,92.5C 282.365,93.9663 281.531,95.2997 280.5,96.5C 281.689,97.4287 283.022,97.762 284.5,97.5C 284.5,98.8333 284.5,100.167 284.5,101.5C 282.533,101.739 280.699,101.406 279,100.5C 277.795,101.071 276.628,101.738 275.5,102.5C 276.127,103.417 276.461,104.417 276.5,105.5C 265.357,99.7619 254.357,93.7619 243.5,87.5C 230.349,88.569 217.349,90.569 204.5,93.5C 201.428,93.1826 198.428,93.5159 195.5,94.5C 192.408,96.3641 189.074,97.5307 185.5,98C 186.416,98.2784 187.082,98.7784 187.5,99.5C 183.259,101.621 178.925,103.787 174.5,106C 176.346,107.03 178.013,108.196 179.5,109.5C 179.279,110.735 178.612,111.735 177.5,112.5C 178.101,114.725 178.434,116.891 178.5,119C 176.085,120.465 175.085,122.632 175.5,125.5C 178.397,125.125 181.063,125.625 183.5,127C 180.801,129.195 178.801,131.861 177.5,135C 178.056,135.383 178.389,135.883 178.5,136.5C 162.164,127.668 146.164,118.335 130.5,108.5C 129.529,107.038 129.862,105.705 131.5,104.5C 166.042,76.4835 205.709,62.6502 250.5,63C 266.896,72.5267 283.23,82.0267 299.5,91.5 Z"/></g>
<g><path style="opacity:1" fill="#17999e" d="M 299.5,91.5 C 335.836,111.999 371.836,132.999 407.5,154.5C 411.059,160.281 414.392,166.948 417.5,174.5C 418.357,175.425 419.357,176.092 420.5,176.5C 420.196,177.15 419.863,177.817 419.5,178.5C 421.292,181.634 422.625,184.967 423.5,188.5C 422.675,189.386 421.675,189.719 420.5,189.5C 372.236,161.891 324.236,133.891 276.5,105.5C 276.461,104.417 276.127,103.417 275.5,102.5C 276.628,101.738 277.795,101.071 279,100.5C 280.699,101.406 282.533,101.739 284.5,101.5C 284.5,100.167 284.5,98.8333 284.5,97.5C 283.022,97.762 281.689,97.4287 280.5,96.5C 281.531,95.2997 282.365,93.9663 283,92.5C 283.718,93.4506 284.551,93.6172 285.5,93C 286.787,91.5905 287.954,90.0905 289,88.5C 292.293,90.2085 295.793,91.2085 299.5,91.5 Z"/></g>
<g><path style="opacity:1" fill="#52adaf" d="M 204.5,93.5 C 199.059,95.8709 193.392,97.8709 187.5,99.5C 187.082,98.7784 186.416,98.2784 185.5,98C 189.074,97.5307 192.408,96.3641 195.5,94.5C 198.428,93.5159 201.428,93.1826 204.5,93.5 Z"/></g>
<g><path style="opacity:0.863" fill="#83bdc0" d="M 131.5,104.5 C 129.862,105.705 129.529,107.038 130.5,108.5C 126.859,107.013 127.192,105.679 131.5,104.5 Z"/></g>
<g><path style="opacity:1" fill="#199a9f" d="M 179.5,109.5 C 218.999,131.413 257.999,154.079 296.5,177.5C 292.593,176.475 288.76,175.142 285,173.5C 281.791,174.52 278.624,175.686 275.5,177C 278.554,182.387 282.887,186.387 288.5,189C 287.911,191.514 286.578,193.514 284.5,195C 285.536,196.617 286.703,196.784 288,195.5C 288.617,196.449 288.451,197.282 287.5,198C 289.529,198.681 291.529,199.014 293.5,199C 291.5,197.667 289.833,196 288.5,194C 289.333,193.833 290.167,193.667 291,193.5C 295.598,194.638 299.931,196.305 304,198.5C 304.617,199.449 304.451,200.282 303.5,201C 300.957,201.14 298.623,201.806 296.5,203C 300.355,204.284 304.021,205.95 307.5,208C 305.381,208.342 305.047,209.175 306.5,210.5C 263.498,186.335 220.832,161.668 178.5,136.5C 178.389,135.883 178.056,135.383 177.5,135C 178.801,131.861 180.801,129.195 183.5,127C 181.063,125.625 178.397,125.125 175.5,125.5C 175.085,122.632 176.085,120.465 178.5,119C 178.434,116.891 178.101,114.725 177.5,112.5C 178.612,111.735 179.279,110.735 179.5,109.5 Z"/></g>
<g><path style="opacity:1" fill="#199a9f" d="M 167.5,190.5 C 166.735,190.923 165.902,191.257 165,191.5C 163.48,190.493 161.813,189.827 160,189.5C 154.783,190.048 149.616,190.881 144.5,192C 143.289,192.893 143.289,193.726 144.5,194.5C 145.086,194.291 145.586,193.957 146,193.5C 147.362,194.925 148.862,195.758 150.5,196C 148.804,197.266 146.971,197.1 145,195.5C 143.491,196.09 141.991,196.756 140.5,197.5C 143.159,199.832 146.159,201.666 149.5,203C 148.244,203.417 147.577,204.25 147.5,205.5C 132.868,197.222 118.201,188.889 103.5,180.5C 95.9497,196.526 90.9497,213.359 88.5,231C 109.535,243.514 130.535,256.014 151.5,268.5C 150.735,268.923 149.902,269.257 149,269.5C 147.203,268.654 145.37,267.654 143.5,266.5C 139.953,268.271 139.953,269.271 143.5,269.5C 145.181,273.324 145.681,277.324 145,281.5C 143.915,282.293 142.748,282.96 141.5,283.5C 140.476,282.147 139.143,281.48 137.5,281.5C 137.105,284.523 138.105,285.523 140.5,284.5C 142.495,286.345 143.161,288.345 142.5,290.5C 116.059,275.777 89.7254,260.777 63.5,245.5C 62.9938,209.349 72.9938,176.349 93.5,146.5C 118.23,161.193 142.897,175.859 167.5,190.5 Z"/></g>
<g><path style="opacity:1" fill="#42a4a5" d="M 407.5,154.5 C 409.371,154.859 410.871,155.859 412,157.5C 415.394,163.619 418.228,169.952 420.5,176.5C 419.357,176.092 418.357,175.425 417.5,174.5C 414.392,166.948 411.059,160.281 407.5,154.5 Z"/></g>
<g><path style="opacity:1" fill="#13999e" d="M 296.5,177.5 C 321.004,191.251 345.338,205.251 369.5,219.5C 371.749,222.722 374.582,225.389 378,227.5C 378.414,227.043 378.914,226.709 379.5,226.5C 381.928,228.588 384.428,230.588 387,232.5C 388.016,231.366 388.683,231.699 389,233.5C 389.671,232.748 390.504,232.414 391.5,232.5C 402.428,238.108 413.094,244.108 423.5,250.5C 419.709,252.596 415.875,254.596 412,256.5C 411.257,254.355 410.424,254.189 409.5,256C 410.022,256.95 410.689,257.784 411.5,258.5C 409.53,260.816 407.196,262.649 404.5,264C 405.67,265.755 407.337,266.755 409.5,267C 407.381,267.342 407.047,268.175 408.5,269.5C 393.329,261.083 378.329,252.416 363.5,243.5C 362.232,242.213 362.565,241.213 364.5,240.5C 355.979,237.115 347.979,232.782 340.5,227.5C 339.583,228.127 338.583,228.461 337.5,228.5C 326.995,222.749 316.662,216.749 306.5,210.5C 305.047,209.175 305.381,208.342 307.5,208C 304.021,205.95 300.355,204.284 296.5,203C 298.623,201.806 300.957,201.14 303.5,201C 304.451,200.282 304.617,199.449 304,198.5C 299.931,196.305 295.598,194.638 291,193.5C 290.167,193.667 289.333,193.833 288.5,194C 289.833,196 291.5,197.667 293.5,199C 291.529,199.014 289.529,198.681 287.5,198C 288.451,197.282 288.617,196.449 288,195.5C 286.703,196.784 285.536,196.617 284.5,195C 286.578,193.514 287.911,191.514 288.5,189C 282.887,186.387 278.554,182.387 275.5,177C 278.624,175.686 281.791,174.52 285,173.5C 288.76,175.142 292.593,176.475 296.5,177.5 Z"/></g>
<g><path style="opacity:0.996" fill="#56a7ab" d="M 420.5,176.5 C 423.43,181.79 425.263,187.456 426,193.5C 423.833,192.512 422,191.179 420.5,189.5C 421.675,189.719 422.675,189.386 423.5,188.5C 422.625,184.967 421.292,181.634 419.5,178.5C 419.863,177.817 420.196,177.15 420.5,176.5 Z"/></g>
<g><path style="opacity:0.98" fill="#4fa9aa" d="M 369.5,219.5 C 377.199,223.344 384.532,227.678 391.5,232.5C 390.504,232.414 389.671,232.748 389,233.5C 388.683,231.699 388.016,231.366 387,232.5C 384.428,230.588 381.928,228.588 379.5,226.5C 378.914,226.709 378.414,227.043 378,227.5C 374.582,225.389 371.749,222.722 369.5,219.5 Z"/></g>
<g><path style="opacity:1" fill="#18999f" d="M 167.5,190.5 C 243.168,233.331 318.501,276.665 393.5,320.5C 391.712,320.215 390.045,320.548 388.5,321.5C 390.029,325.942 388.363,328.275 383.5,328.5C 380.176,328.017 377.842,326.184 376.5,323C 373.294,322.704 370.128,322.204 367,321.5C 363.108,322.866 362.775,324.533 366,326.5C 368.541,325.336 371.041,325.503 373.5,327C 375.345,328.423 377.345,329.59 379.5,330.5C 381.013,333.524 383.013,336.191 385.5,338.5C 384.975,339.192 384.308,339.692 383.5,340C 388.534,339.837 393.2,338.337 397.5,335.5C 398.167,335.833 398.833,336.167 399.5,336.5C 396.007,338.292 392.673,340.292 389.5,342.5C 390.665,343.584 391.998,344.417 393.5,345C 392.748,345.671 392.414,346.504 392.5,347.5C 310.662,300.416 228.995,253.082 147.5,205.5C 147.577,204.25 148.244,203.417 149.5,203C 146.159,201.666 143.159,199.832 140.5,197.5C 141.991,196.756 143.491,196.09 145,195.5C 146.971,197.1 148.804,197.266 150.5,196C 148.862,195.758 147.362,194.925 146,193.5C 145.586,193.957 145.086,194.291 144.5,194.5C 143.289,193.726 143.289,192.893 144.5,192C 149.616,190.881 154.783,190.048 160,189.5C 161.813,189.827 163.48,190.493 165,191.5C 165.902,191.257 166.735,190.923 167.5,190.5 Z"/></g>
<g><path style="opacity:1" fill="#42a3a5" d="M 363.5,243.5 C 354.499,239.002 345.832,234.002 337.5,228.5C 338.583,228.461 339.583,228.127 340.5,227.5C 347.979,232.782 355.979,237.115 364.5,240.5C 362.565,241.213 362.232,242.213 363.5,243.5 Z"/></g>
<g><path style="opacity:1" fill="#17999f" d="M 423.5,250.5 C 428.929,251.867 433.262,254.7 436.5,259C 433.729,293.816 422.729,325.65 403.5,354.5C 399.599,352.392 395.933,350.059 392.5,347.5C 392.414,346.504 392.748,345.671 393.5,345C 391.998,344.417 390.665,343.584 389.5,342.5C 392.673,340.292 396.007,338.292 399.5,336.5C 398.833,336.167 398.167,335.833 397.5,335.5C 393.2,338.337 388.534,339.837 383.5,340C 384.308,339.692 384.975,339.192 385.5,338.5C 383.013,336.191 381.013,333.524 379.5,330.5C 377.345,329.59 375.345,328.423 373.5,327C 371.041,325.503 368.541,325.336 366,326.5C 362.775,324.533 363.108,322.866 367,321.5C 370.128,322.204 373.294,322.704 376.5,323C 377.842,326.184 380.176,328.017 383.5,328.5C 388.363,328.275 390.029,325.942 388.5,321.5C 390.045,320.548 391.712,320.215 393.5,320.5C 394.75,320.423 395.583,319.756 396,318.5C 403.003,302.698 407.17,286.365 408.5,269.5C 407.047,268.175 407.381,267.342 409.5,267C 407.337,266.755 405.67,265.755 404.5,264C 407.196,262.649 409.53,260.816 411.5,258.5C 410.689,257.784 410.022,256.95 409.5,256C 410.424,254.189 411.257,254.355 412,256.5C 415.875,254.596 419.709,252.596 423.5,250.5 Z"/></g>
<g><path style="opacity:1" fill="#17999e" d="M 151.5,268.5 C 178.501,283.331 205.168,298.665 231.5,314.5C 232.51,317.233 234.343,319.233 237,320.5C 237.414,320.043 237.914,319.709 238.5,319.5C 239.535,322.266 241.201,322.932 243.5,321.5C 285.02,344.511 326.186,368.178 367,392.5C 367.617,393.449 367.451,394.282 366.5,395C 353.27,405.055 338.936,413.222 323.5,419.5C 320.534,418.133 317.367,417.133 314,416.5C 313.667,416.833 313.333,417.167 313,417.5C 312.508,416.451 312.674,415.451 313.5,414.5C 313.192,413.692 312.692,413.025 312,412.5C 309.667,412.833 307.333,413.167 305,413.5C 300.885,409.637 296.051,407.47 290.5,407C 291.873,406.125 293.373,405.625 295,405.5C 298.534,406.898 302.034,408.231 305.5,409.5C 308.248,407.709 311.248,407.209 314.5,408C 315.227,409.399 315.727,410.899 316,412.5C 317.714,413.925 319.047,413.592 320,411.5C 320.987,407.652 319.487,405.652 315.5,405.5C 315.762,404.022 315.429,402.689 314.5,401.5C 308.169,403.735 301.836,404.735 295.5,404.5C 304.004,401.586 312.338,398.086 320.5,394C 300.591,381.905 280.591,370.072 260.5,358.5C 258.83,357.129 258.164,355.629 258.5,354C 254.218,352.18 249.885,350.514 245.5,349C 244.167,348.333 244.167,347.667 245.5,347C 241.484,346.212 238.317,344.046 236,340.5C 234.751,342.992 233.584,342.825 232.5,340C 231.251,339.26 230.251,339.427 229.5,340.5C 200.003,324.588 171.003,307.922 142.5,290.5C 143.161,288.345 142.495,286.345 140.5,284.5C 138.105,285.523 137.105,284.523 137.5,281.5C 139.143,281.48 140.476,282.147 141.5,283.5C 142.748,282.96 143.915,282.293 145,281.5C 145.681,277.324 145.181,273.324 143.5,269.5C 139.953,269.271 139.953,268.271 143.5,266.5C 145.37,267.654 147.203,268.654 149,269.5C 149.902,269.257 150.735,268.923 151.5,268.5 Z"/></g>
<g><path style="opacity:0.949" fill="#79bcb8" d="M 76.5,312.5 C 74.9519,312.821 74.2852,313.821 74.5,315.5C 73.095,313.775 72.595,311.775 73,309.5C 74.5185,310.163 75.6851,311.163 76.5,312.5 Z"/></g>
<g><path style="opacity:1" fill="#4fa8ad" d="M 231.5,314.5 C 235.836,316.332 239.836,318.665 243.5,321.5C 241.201,322.932 239.535,322.266 238.5,319.5C 237.914,319.709 237.414,320.043 237,320.5C 234.343,319.233 232.51,317.233 231.5,314.5 Z"/></g>
<g><path style="opacity:1" fill="#17999f" d="M 76.5,312.5 C 133.772,344.804 190.772,377.638 247.5,411C 263.804,411.116 279.804,408.949 295.5,404.5C 301.836,404.735 308.169,403.735 314.5,401.5C 315.429,402.689 315.762,404.022 315.5,405.5C 319.487,405.652 320.987,407.652 320,411.5C 319.047,413.592 317.714,413.925 316,412.5C 315.727,410.899 315.227,409.399 314.5,408C 311.248,407.209 308.248,407.709 305.5,409.5C 302.034,408.231 298.534,406.898 295,405.5C 293.373,405.625 291.873,406.125 290.5,407C 296.051,407.47 300.885,409.637 305,413.5C 307.333,413.167 309.667,412.833 312,412.5C 312.692,413.025 313.192,413.692 313.5,414.5C 312.674,415.451 312.508,416.451 313,417.5C 313.333,417.167 313.667,416.833 314,416.5C 317.367,417.133 320.534,418.133 323.5,419.5C 317.598,422.803 311.264,425.136 304.5,426.5C 303.265,426.279 302.265,425.612 301.5,424.5C 297.783,427.24 293.616,428.907 289,429.5C 287.97,429.836 287.47,430.503 287.5,431.5C 272.425,435.441 257.092,436.941 241.5,436C 229.271,429.059 217.271,421.892 205.5,414.5C 203.444,410.022 199.944,407.022 195,405.5C 194.228,405.645 193.561,405.978 193,406.5C 191.647,404.566 190.147,402.733 188.5,401C 184.776,397.814 180.442,395.648 175.5,394.5C 175.023,393.522 174.357,392.689 173.5,392C 174.449,391.383 175.282,391.549 176,392.5C 176.5,391.333 177.333,390.5 178.5,390C 174.527,390.291 170.527,390.791 166.5,391.5C 141.392,377.443 116.392,363.11 91.5,348.5C 84.5158,338.199 78.8492,327.199 74.5,315.5C 74.2852,313.821 74.9519,312.821 76.5,312.5 Z"/></g>
<g><path style="opacity:1" fill="#44a3a5" d="M 260.5,358.5 C 249.667,353.254 239.334,347.254 229.5,340.5C 230.251,339.427 231.251,339.26 232.5,340C 233.584,342.825 234.751,342.992 236,340.5C 238.317,344.046 241.484,346.212 245.5,347C 244.167,347.667 244.167,348.333 245.5,349C 249.885,350.514 254.218,352.18 258.5,354C 258.164,355.629 258.83,357.129 260.5,358.5 Z"/></g>
<g><path style="opacity:1" fill="#37a0a2" d="M 205.5,414.5 C 192.235,407.224 179.235,399.557 166.5,391.5C 170.527,390.791 174.527,390.291 178.5,390C 177.333,390.5 176.5,391.333 176,392.5C 175.282,391.549 174.449,391.383 173.5,392C 174.357,392.689 175.023,393.522 175.5,394.5C 180.442,395.648 184.776,397.814 188.5,401C 190.147,402.733 191.647,404.566 193,406.5C 193.561,405.978 194.228,405.645 195,405.5C 199.944,407.022 203.444,410.022 205.5,414.5 Z"/></g>
<g><path style="opacity:1" fill="#50aaaa" d="M 304.5,426.5 C 299.16,428.923 293.493,430.589 287.5,431.5C 287.47,430.503 287.97,429.836 289,429.5C 293.616,428.907 297.783,427.24 301.5,424.5C 302.265,425.612 303.265,426.279 304.5,426.5 Z"/></g>
</svg>
