<?xml version="1.0" encoding="UTF-8"?>
<!DOCTYPE svg PUBLIC "-//W3C//DTD SVG 1.1//EN" "http://www.w3.org/Graphics/SVG/1.1/DTD/svg11.dtd">
<svg xmlns="http://www.w3.org/2000/svg" version="1.1" width="500px" height="500px" style="shape-rendering:geometricPrecision; text-rendering:geometricPrecision; image-rendering:optimizeQuality; fill-rule:evenodd; clip-rule:evenodd" xmlns:xlink="http://www.w3.org/1999/xlink">
<g><path style="opacity:1" fill="#17999f" d="M 230.5,25.5 C 235.844,25.334 241.177,25.5006 246.5,26C 247.167,27 247.833,28 248.5,29C 245.298,29.1978 242.298,30.0311 239.5,31.5C 240.472,33.6365 242.139,34.8032 244.5,35C 242.589,36.4959 240.589,37.8292 238.5,39C 242.778,41.1754 246.778,40.6754 250.5,37.5C 251.5,37.8333 252.167,38.5 252.5,39.5C 251.335,40.5836 250.002,41.4169 248.5,42C 248.833,42.3333 249.167,42.6667 249.5,43C 246.749,43.9428 244.083,44.7761 241.5,45.5C 231.053,46.516 220.72,48.1827 210.5,50.5C 207.5,49.9072 204.5,49.0739 201.5,48C 203.577,47.8078 205.577,47.3078 207.5,46.5C 203.521,45.4949 199.521,45.4949 195.5,46.5C 195.5,47.5 195.5,48.5 195.5,49.5C 197.5,49.5 199.5,49.5 201.5,49.5C 201.5,50.5 201.5,51.5 201.5,52.5C 199.473,52.6621 197.473,52.4955 195.5,52C 194.33,50.2453 192.663,49.2453 190.5,49C 188.777,45.5921 189.777,43.2587 193.5,42C 198.489,41.5007 203.489,41.3341 208.5,41.5C 208.5,40.1667 208.5,38.8333 208.5,37.5C 203.231,38.6492 197.898,39.4825 192.5,40C 189.417,41.9253 186.083,43.092 182.5,43.5C 182.5,44.5 182.5,45.5 182.5,46.5C 178.968,46.69 175.635,46.0233 172.5,44.5C 190.313,33.7851 209.646,27.4518 230.5,25.5 Z"/></g>
<g><path style="opacity:1" fill="#17999e" d="M 210.5,50.5 C 202.394,53.4899 194.394,56.9899 186.5,61C 194.064,65.2745 201.398,69.7745 208.5,74.5C 207.38,76.1238 206.047,77.6238 204.5,79C 206.429,80.6942 207.429,82.8609 207.5,85.5C 203.059,83.6268 198.392,82.2934 193.5,81.5C 192.063,74.8206 189.729,74.3206 186.5,80C 188.271,80.5354 188.604,81.3687 187.5,82.5C 185.591,81.6518 183.591,81.3184 181.5,81.5C 181.88,78.2084 180.547,75.8751 177.5,74.5C 176.109,75.6446 174.776,75.6446 173.5,74.5C 172.289,73.2798 172.289,72.1131 173.5,71C 172.833,70.3333 172.167,69.6667 171.5,69C 168.609,69.0451 165.942,69.8784 163.5,71.5C 157.888,68.3575 152.221,65.1908 146.5,62C 154.361,54.9077 163.028,49.0743 172.5,44.5C 175.635,46.0233 178.968,46.69 182.5,46.5C 182.5,45.5 182.5,44.5 182.5,43.5C 186.083,43.092 189.417,41.9253 192.5,40C 197.898,39.4825 203.231,38.6492 208.5,37.5C 208.5,38.8333 208.5,40.1667 208.5,41.5C 203.489,41.3341 198.489,41.5007 193.5,42C 189.777,43.2587 188.777,45.5921 190.5,49C 192.663,49.2453 194.33,50.2453 195.5,52C 197.473,52.4955 199.473,52.6621 201.5,52.5C 201.5,51.5 201.5,50.5 201.5,49.5C 199.5,49.5 197.5,49.5 195.5,49.5C 195.5,48.5 195.5,47.5 195.5,46.5C 199.521,45.4949 203.521,45.4949 207.5,46.5C 205.577,47.3078 203.577,47.8078 201.5,48C 204.5,49.0739 207.5,49.9072 210.5,50.5 Z"/></g>
<g><path style="opacity:1" fill="#1c9a9f" d="M 230.5,25.5 C 237.321,24.3454 244.321,24.1787 251.5,25C 285.928,44.2978 319.928,64.1311 353.5,84.5C 352.127,84.3433 350.793,84.51 349.5,85C 351.527,86.3957 351.86,88.0624 350.5,90C 347.696,90.4597 345.029,89.9597 342.5,88.5C 341.614,89.325 341.281,90.325 341.5,91.5C 344.365,91.0548 346.865,91.7215 349,93.5C 351.874,91.1091 353.374,91.4424 353.5,94.5C 350.757,95.3882 348.09,96.5549 345.5,98C 344.177,98.8159 343.511,99.9826 343.5,101.5C 311.562,83.8626 279.895,65.6959 248.5,47C 246.323,45.7978 243.989,45.2978 241.5,45.5C 244.083,44.7761 246.749,43.9428 249.5,43C 249.167,42.6667 248.833,42.3333 248.5,42C 250.002,41.4169 251.335,40.5836 252.5,39.5C 252.167,38.5 251.5,37.8333 250.5,37.5C 246.778,40.6754 242.778,41.1754 238.5,39C 240.589,37.8292 242.589,36.4959 244.5,35C 242.139,34.8032 240.472,33.6365 239.5,31.5C 242.298,30.0311 245.298,29.1978 248.5,29C 247.833,28 247.167,27 246.5,26C 241.177,25.5006 235.844,25.334 230.5,25.5 Z"/></g>
<g><path style="opacity:1" fill="#1c9a9f" d="M 353.5,84.5 C 364.608,90.5571 375.608,96.8904 386.5,103.5C 392.149,113.487 396.149,123.82 398.5,134.5C 379.937,123.726 361.604,112.726 343.5,101.5C 343.511,99.9826 344.177,98.8159 345.5,98C 348.09,96.5549 350.757,95.3882 353.5,94.5C 353.374,91.4424 351.874,91.1091 349,93.5C 346.865,91.7215 344.365,91.0548 341.5,91.5C 341.281,90.325 341.614,89.325 342.5,88.5C 345.029,89.9597 347.696,90.4597 350.5,90C 351.86,88.0624 351.527,86.3957 349.5,85C 350.793,84.51 352.127,84.3433 353.5,84.5 Z"/></g>
<g><path style="opacity:1" fill="#1c9a9f" d="M 208.5,74.5 C 229.096,85.7749 249.429,97.4416 269.5,109.5C 268.942,110.79 267.942,111.623 266.5,112C 269.576,112.346 272.576,113.012 275.5,114C 274.054,116.493 274.721,118.327 277.5,119.5C 274.349,120.09 272.016,118.756 270.5,115.5C 269.675,114.614 268.675,114.281 267.5,114.5C 268.245,117.93 266.911,119.597 263.5,119.5C 261.091,118.936 258.758,118.103 256.5,117C 256.554,115.649 256.054,114.482 255,113.5C 253.441,114.029 251.941,114.696 250.5,115.5C 250.5,114.167 250.5,112.833 250.5,111.5C 248.057,113.055 245.39,113.722 242.5,113.5C 242.824,110.32 241.49,109.153 238.5,110C 242.208,115.858 247.541,119.191 254.5,120C 253.542,121.147 253.875,122.147 255.5,123C 258.874,123.521 261.874,124.854 264.5,127C 263.584,127.278 262.918,127.778 262.5,128.5C 229.002,110.255 196.002,91.2547 163.5,71.5C 165.942,69.8784 168.609,69.0451 171.5,69C 172.167,69.6667 172.833,70.3333 173.5,71C 172.289,72.1131 172.289,73.2798 173.5,74.5C 174.776,75.6446 176.109,75.6446 177.5,74.5C 180.547,75.8751 181.88,78.2084 181.5,81.5C 183.591,81.3184 185.591,81.6518 187.5,82.5C 188.604,81.3687 188.271,80.5354 186.5,80C 189.729,74.3206 192.063,74.8206 193.5,81.5C 198.392,82.2934 203.059,83.6268 207.5,85.5C 207.429,82.8609 206.429,80.6942 204.5,79C 206.047,77.6238 207.38,76.1238 208.5,74.5 Z"/></g>
<g><path style="opacity:1" fill="#16999e" d="M 167.5,124.5 C 167.426,128.266 168.926,131.266 172,133.5C 172.249,132.376 172.749,131.376 173.5,130.5C 175.89,132.267 177.557,134.6 178.5,137.5C 180.621,135.102 182.955,134.935 185.5,137C 182.455,145.875 177.122,147.708 169.5,142.5C 167.44,143.528 165.44,143.528 163.5,142.5C 164.09,141.201 165.09,140.368 166.5,140C 164.332,139.59 162.999,138.756 162.5,137.5C 160.653,138.511 158.82,139.511 157,140.5C 153.516,137.936 150.516,134.936 148,131.5C 146.489,132.564 146.323,133.897 147.5,135.5C 139.985,132.157 132.818,128.157 126,123.5C 119.793,137.449 115.627,151.949 113.5,167C 123.061,172.274 132.394,177.774 141.5,183.5C 141.033,187.406 143.033,189.739 147.5,190.5C 150.167,192.5 150.167,194.5 147.5,196.5C 150.92,198.441 154.42,200.108 158,201.5C 161.423,197.564 162.757,197.898 162,202.5C 157.669,206.228 153.502,205.895 149.5,201.5C 147.689,202.736 145.856,202.736 144,201.5C 143.05,202.022 142.216,202.689 141.5,203.5C 137.23,201.449 133.397,198.783 130,195.5C 128.493,196.535 126.993,196.368 125.5,195C 126.451,194.282 126.617,193.449 126,192.5C 122.368,189.363 118.201,187.363 113.5,186.5C 112.261,186.942 111.261,187.609 110.5,188.5C 104.396,185.614 98.3956,182.447 92.5,179C 91.907,148.442 100.407,120.608 118,95.5C 134.793,104.808 151.293,114.475 167.5,124.5 Z"/></g>
<g><path style="opacity:1" fill="#1a9a9f" d="M 269.5,109.5 C 286.202,119.182 302.869,128.848 319.5,138.5C 317.641,138.461 316.308,139.294 315.5,141C 312.774,141.182 310.107,141.682 307.5,142.5C 308.5,143.167 309.5,143.833 310.5,144.5C 311.506,145.396 311.506,146.062 310.5,146.5C 307.655,146.167 305.155,145.167 303,143.5C 301.477,145.569 300.643,147.903 300.5,150.5C 287.498,143.668 274.832,136.335 262.5,128.5C 262.918,127.778 263.584,127.278 264.5,127C 261.874,124.854 258.874,123.521 255.5,123C 253.875,122.147 253.542,121.147 254.5,120C 247.541,119.191 242.208,115.858 238.5,110C 241.49,109.153 242.824,110.32 242.5,113.5C 245.39,113.722 248.057,113.055 250.5,111.5C 250.5,112.833 250.5,114.167 250.5,115.5C 251.941,114.696 253.441,114.029 255,113.5C 256.054,114.482 256.554,115.649 256.5,117C 258.758,118.103 261.091,118.936 263.5,119.5C 266.911,119.597 268.245,117.93 267.5,114.5C 268.675,114.281 269.675,114.614 270.5,115.5C 272.016,118.756 274.349,120.09 277.5,119.5C 274.721,118.327 274.054,116.493 275.5,114C 272.576,113.012 269.576,112.346 266.5,112C 267.942,111.623 268.942,110.79 269.5,109.5 Z"/></g>
<g><path style="opacity:1" fill="#1b9a9f" d="M 167.5,124.5 C 204.671,145.584 241.671,166.917 278.5,188.5C 279.511,190.372 280.345,192.372 281,194.5C 283.296,196.057 285.462,197.724 287.5,199.5C 286.667,199.833 285.833,200.167 285,200.5C 282.028,199.705 279.361,199.038 277,198.5C 276.25,199.126 275.416,199.626 274.5,200C 274.833,200.333 275.167,200.667 275.5,201C 274.552,201.483 273.552,201.649 272.5,201.5C 271.244,201.904 270.077,202.571 269,203.5C 262.812,199.159 256.312,195.493 249.5,192.5C 246.688,190.523 244.022,188.356 241.5,186C 240.135,186.143 238.802,186.643 237.5,187.5C 207.165,170.669 177.165,153.335 147.5,135.5C 146.323,133.897 146.489,132.564 148,131.5C 150.516,134.936 153.516,137.936 157,140.5C 158.82,139.511 160.653,138.511 162.5,137.5C 162.999,138.756 164.332,139.59 166.5,140C 165.09,140.368 164.09,141.201 163.5,142.5C 165.44,143.528 167.44,143.528 169.5,142.5C 177.122,147.708 182.455,145.875 185.5,137C 182.955,134.935 180.621,135.102 178.5,137.5C 177.557,134.6 175.89,132.267 173.5,130.5C 172.749,131.376 172.249,132.376 172,133.5C 168.926,131.266 167.426,128.266 167.5,124.5 Z"/></g>
<g><path style="opacity:1" fill="#1d9a9f" d="M 319.5,138.5 C 330.533,144.344 341.199,150.678 351.5,157.5C 346.351,158.452 341.351,159.619 336.5,161C 342.923,162.338 343.09,164.171 337,166.5C 336.685,167.908 337.018,169.241 338,170.5C 341.437,172.917 345.27,174.417 349.5,175C 350.787,176.41 351.954,177.91 353,179.5C 355.312,177.536 357.812,177.203 360.5,178.5C 357.956,179.937 357.956,181.437 360.5,183C 362.813,183.662 365.146,184.162 367.5,184.5C 367.5,185.5 367.5,186.5 367.5,187.5C 370.564,187.144 373.231,187.977 375.5,190C 374.619,190.708 373.953,191.542 373.5,192.5C 348.669,179.255 324.336,165.255 300.5,150.5C 300.643,147.903 301.477,145.569 303,143.5C 305.155,145.167 307.655,146.167 310.5,146.5C 311.506,146.062 311.506,145.396 310.5,144.5C 309.5,143.833 308.5,143.167 307.5,142.5C 310.107,141.682 312.774,141.182 315.5,141C 316.308,139.294 317.641,138.461 319.5,138.5 Z"/></g>
<g><path style="opacity:1" fill="#13999e" d="M 351.5,157.5 C 363.663,163.411 375.33,170.078 386.5,177.5C 386.727,179.997 388.06,181.664 390.5,182.5C 390.023,183.478 389.357,184.311 388.5,185C 391.101,185.92 393.768,186.587 396.5,187C 394.944,189.614 392.61,190.947 389.5,191C 391.536,192.819 391.703,194.653 390,196.5C 389.02,195.019 387.853,193.685 386.5,192.5C 383.029,193.097 379.695,193.764 376.5,194.5C 374.973,194.573 373.973,193.906 373.5,192.5C 373.953,191.542 374.619,190.708 375.5,190C 373.231,187.977 370.564,187.144 367.5,187.5C 367.5,186.5 367.5,185.5 367.5,184.5C 365.146,184.162 362.813,183.662 360.5,183C 357.956,181.437 357.956,179.937 360.5,178.5C 357.812,177.203 355.312,177.536 353,179.5C 351.954,177.91 350.787,176.41 349.5,175C 345.27,174.417 341.437,172.917 338,170.5C 337.018,169.241 336.685,167.908 337,166.5C 343.09,164.171 342.923,162.338 336.5,161C 341.351,159.619 346.351,158.452 351.5,157.5 Z"/></g>
<g><path style="opacity:1" fill="#3aa1a2" d="M 272.5,201.5 C 271.699,203.042 271.366,204.708 271.5,206.5C 275.774,206.803 279.441,208.47 282.5,211.5C 283.386,212.325 283.719,213.325 283.5,214.5C 267.83,206.001 252.497,197.001 237.5,187.5C 238.802,186.643 240.135,186.143 241.5,186C 244.022,188.356 246.688,190.523 249.5,192.5C 256.312,195.493 262.812,199.159 269,203.5C 270.077,202.571 271.244,201.904 272.5,201.5 Z"/></g>
<g><path style="opacity:1" fill="#1d9a9f" d="M 386.5,177.5 C 393.518,180.76 400.351,184.427 407,188.5C 406.05,213.171 399.55,236.171 387.5,257.5C 387.881,255.058 387.214,254.391 385.5,255.5C 383.947,253.735 383.614,251.902 384.5,250C 380.957,248.169 379.957,245.502 381.5,242C 380.37,240.24 379.37,238.407 378.5,236.5C 377.664,238.94 375.997,240.273 373.5,240.5C 378.642,227.767 382.309,214.6 384.5,201C 382.285,198.286 379.618,196.119 376.5,194.5C 379.695,193.764 383.029,193.097 386.5,192.5C 387.853,193.685 389.02,195.019 390,196.5C 391.703,194.653 391.536,192.819 389.5,191C 392.61,190.947 394.944,189.614 396.5,187C 393.768,186.587 391.101,185.92 388.5,185C 389.357,184.311 390.023,183.478 390.5,182.5C 388.06,181.664 386.727,179.997 386.5,177.5 Z"/></g>
<g><path style="opacity:1" fill="#1c9a9f" d="M 278.5,188.5 C 299.502,199.998 320.169,211.998 340.5,224.5C 338.883,225.038 337.216,225.371 335.5,225.5C 335.649,224.448 335.483,223.448 335,222.5C 332.485,223.674 329.985,223.341 327.5,221.5C 325.452,222.77 323.452,223.103 321.5,222.5C 322.376,221.749 323.376,221.249 324.5,221C 323.333,220.5 322.5,219.667 322,218.5C 320.2,220.145 318.2,221.478 316,222.5C 315.517,223.448 315.351,224.448 315.5,225.5C 313.833,225.5 312.167,225.5 310.5,225.5C 310.33,226.822 310.663,227.989 311.5,229C 313.834,229.339 316.168,229.172 318.5,228.5C 322.146,229.051 321.812,229.385 317.5,229.5C 317.5,230.5 317.5,231.5 317.5,232.5C 320.167,233.167 322.833,233.833 325.5,234.5C 325.351,235.552 325.517,236.552 326,237.5C 326.333,237.167 326.667,236.833 327,236.5C 328.856,238.667 331.023,239.334 333.5,238.5C 332.983,240.019 333.65,241.352 335.5,242.5C 337.423,243.308 339.423,243.808 341.5,244C 342.38,245.356 342.714,246.856 342.5,248.5C 322.335,237.921 302.669,226.588 283.5,214.5C 283.719,213.325 283.386,212.325 282.5,211.5C 279.441,208.47 275.774,206.803 271.5,206.5C 271.366,204.708 271.699,203.042 272.5,201.5C 273.552,201.649 274.552,201.483 275.5,201C 275.167,200.667 274.833,200.333 274.5,200C 275.416,199.626 276.25,199.126 277,198.5C 279.361,199.038 282.028,199.705 285,200.5C 285.833,200.167 286.667,199.833 287.5,199.5C 285.462,197.724 283.296,196.057 281,194.5C 280.345,192.372 279.511,190.372 278.5,188.5 Z"/></g>
<g><path style="opacity:1" fill="#1b9a9f" d="M 141.5,183.5 C 168.501,198.331 195.168,213.665 221.5,229.5C 218.013,230.262 214.679,231.429 211.5,233C 213.645,233.743 213.811,234.576 212,235.5C 208.7,233.852 205.7,231.852 203,229.5C 202.323,231.689 201.156,232.022 199.5,230.5C 198.289,229.726 198.289,228.893 199.5,228C 194.686,226.409 189.853,224.909 185,223.5C 182.669,223.348 180.336,224.014 178,225.5C 177.167,225.167 176.333,224.833 175.5,224.5C 176.893,221.398 176.06,220.398 173,221.5C 170.424,220.539 168.257,219.039 166.5,217C 167.833,216.667 169.167,216.333 170.5,216C 168.251,215.137 166.418,215.637 165,217.5C 162.123,215.596 158.956,214.596 155.5,214.5C 140.002,206.588 125.002,197.921 110.5,188.5C 111.261,187.609 112.261,186.942 113.5,186.5C 118.201,187.363 122.368,189.363 126,192.5C 126.617,193.449 126.451,194.282 125.5,195C 126.993,196.368 128.493,196.535 130,195.5C 133.397,198.783 137.23,201.449 141.5,203.5C 142.216,202.689 143.05,202.022 144,201.5C 145.856,202.736 147.689,202.736 149.5,201.5C 153.502,205.895 157.669,206.228 162,202.5C 162.757,197.898 161.423,197.564 158,201.5C 154.42,200.108 150.92,198.441 147.5,196.5C 150.167,194.5 150.167,192.5 147.5,190.5C 143.033,189.739 141.033,187.406 141.5,183.5 Z"/></g>
<g><path style="opacity:1" fill="#1c9a9f" d="M 155.5,214.5 C 158.956,214.596 162.123,215.596 165,217.5C 166.418,215.637 168.251,215.137 170.5,216C 169.167,216.333 167.833,216.667 166.5,217C 168.257,219.039 170.424,220.539 173,221.5C 176.06,220.398 176.893,221.398 175.5,224.5C 176.333,224.833 177.167,225.167 178,225.5C 180.336,224.014 182.669,223.348 185,223.5C 189.853,224.909 194.686,226.409 199.5,228C 198.289,228.893 198.289,229.726 199.5,230.5C 201.156,232.022 202.323,231.689 203,229.5C 205.7,231.852 208.7,233.852 212,235.5C 213.811,234.576 213.645,233.743 211.5,233C 214.679,231.429 218.013,230.262 221.5,229.5C 235.168,236.665 248.501,244.331 261.5,252.5C 259.876,252.36 258.71,253.027 258,254.5C 258.053,256.936 257.887,259.269 257.5,261.5C 255.889,260.68 255.222,259.346 255.5,257.5C 252.534,257.89 249.868,257.223 247.5,255.5C 247.08,257.326 247.08,259.326 247.5,261.5C 245.801,261.34 244.134,261.506 242.5,262C 241.402,262.77 241.402,263.603 242.5,264.5C 213.003,248.588 184.003,231.922 155.5,214.5 Z"/></g>
<g><path style="opacity:1" fill="#18999f" d="M 340.5,224.5 C 350.94,229.888 361.273,235.555 371.5,241.5C 372.183,241.137 372.85,240.804 373.5,240.5C 375.997,240.273 377.664,238.94 378.5,236.5C 379.37,238.407 380.37,240.24 381.5,242C 379.957,245.502 380.957,248.169 384.5,250C 383.614,251.902 383.947,253.735 385.5,255.5C 387.214,254.391 387.881,255.058 387.5,257.5C 385.608,262.279 382.941,266.612 379.5,270.5C 366.938,263.392 354.605,256.059 342.5,248.5C 342.714,246.856 342.38,245.356 341.5,244C 339.423,243.808 337.423,243.308 335.5,242.5C 333.65,241.352 332.983,240.019 333.5,238.5C 331.023,239.334 328.856,238.667 327,236.5C 326.667,236.833 326.333,237.167 326,237.5C 325.517,236.552 325.351,235.552 325.5,234.5C 322.833,233.833 320.167,233.167 317.5,232.5C 317.5,231.5 317.5,230.5 317.5,229.5C 321.812,229.385 322.146,229.051 318.5,228.5C 316.168,229.172 313.834,229.339 311.5,229C 310.663,227.989 310.33,226.822 310.5,225.5C 312.167,225.5 313.833,225.5 315.5,225.5C 315.351,224.448 315.517,223.448 316,222.5C 318.2,221.478 320.2,220.145 322,218.5C 322.5,219.667 323.333,220.5 324.5,221C 323.376,221.249 322.376,221.749 321.5,222.5C 323.452,223.103 325.452,222.77 327.5,221.5C 329.985,223.341 332.485,223.674 335,222.5C 335.483,223.448 335.649,224.448 335.5,225.5C 337.216,225.371 338.883,225.038 340.5,224.5 Z"/></g>
<g><path style="opacity:1" fill="#379fa3" d="M 127.5,248.5 C 121.516,248.424 116.016,246.758 111,243.5C 110.493,244.996 110.993,246.163 112.5,247C 109.602,246.445 108.269,247.945 108.5,251.5C 111.605,251.599 114.272,252.599 116.5,254.5C 115.313,255.519 114.313,256.686 113.5,258C 117.056,262.889 121.723,266.223 127.5,268C 128.833,268.667 128.833,269.333 127.5,270C 128.833,270.333 130.167,270.667 131.5,271C 129.381,271.342 129.047,272.175 130.5,273.5C 124.979,271.155 119.812,268.155 115,264.5C 108.983,254.631 103.816,244.298 99.5,233.5C 100.002,232.479 100.668,232.312 101.5,233C 110.395,237.941 119.062,243.108 127.5,248.5 Z"/></g>
<g><path style="opacity:1" fill="#4da7a9" d="M 127.5,248.5 C 138.505,254.333 149.172,260.666 159.5,267.5C 157.914,266.587 156.414,266.587 155,267.5C 153.615,266.449 152.615,265.116 152,263.5C 151.667,263.833 151.333,264.167 151,264.5C 150.047,262.408 148.714,262.075 147,263.5C 146.751,262.376 146.251,261.376 145.5,260.5C 140.22,257.367 134.887,254.534 129.5,252C 128.177,251.184 127.511,250.017 127.5,248.5 Z"/></g>
<g><path style="opacity:1" fill="#13999e" d="M 127.5,248.5 C 127.511,250.017 128.177,251.184 129.5,252C 134.887,254.534 140.22,257.367 145.5,260.5C 146.251,261.376 146.751,262.376 147,263.5C 148.714,262.075 150.047,262.408 151,264.5C 151.333,264.167 151.667,263.833 152,263.5C 152.615,265.116 153.615,266.449 155,267.5C 156.414,266.587 157.914,266.587 159.5,267.5C 167.428,271.441 175.095,275.774 182.5,280.5C 182.352,284.956 180.019,287.79 175.5,289C 181.288,290.437 186.622,292.771 191.5,296C 192.833,298 192.833,300 191.5,302C 190.365,302.749 189.365,302.583 188.5,301.5C 187.598,297.098 184.932,294.598 180.5,294C 177.833,293.333 175.167,293.333 172.5,294C 171.68,296.914 170.68,297.081 169.5,294.5C 169.709,293.914 170.043,293.414 170.5,293C 167.522,292.304 164.522,291.804 161.5,291.5C 150.667,286.254 140.334,280.254 130.5,273.5C 129.047,272.175 129.381,271.342 131.5,271C 130.167,270.667 128.833,270.333 127.5,270C 128.833,269.333 128.833,268.667 127.5,268C 121.723,266.223 117.056,262.889 113.5,258C 114.313,256.686 115.313,255.519 116.5,254.5C 114.272,252.599 111.605,251.599 108.5,251.5C 108.269,247.945 109.602,246.445 112.5,247C 110.993,246.163 110.493,244.996 111,243.5C 116.016,246.758 121.516,248.424 127.5,248.5 Z"/></g>
<g><path style="opacity:1" fill="#1a999f" d="M 261.5,252.5 C 290.445,268.976 319.445,285.476 348.5,302C 349.451,302.718 349.617,303.551 349,304.5C 317.322,328.837 281.489,340.337 241.5,339C 232.436,333.475 223.436,327.975 214.5,322.5C 213.537,321.637 213.537,320.97 214.5,320.5C 217.962,321.869 221.295,323.536 224.5,325.5C 225.308,325.192 225.975,324.692 226.5,324C 224.243,322.55 221.91,321.383 219.5,320.5C 224.014,311.172 230.014,310.172 237.5,317.5C 239.7,316.675 240.034,315.342 238.5,313.5C 241.589,314.739 244.589,316.239 247.5,318C 269.285,318.388 289.951,313.721 309.5,304C 287.104,290.807 264.77,277.64 242.5,264.5C 241.402,263.603 241.402,262.77 242.5,262C 244.134,261.506 245.801,261.34 247.5,261.5C 247.08,259.326 247.08,257.326 247.5,255.5C 249.868,257.223 252.534,257.89 255.5,257.5C 255.222,259.346 255.889,260.68 257.5,261.5C 257.887,259.269 258.053,256.936 258,254.5C 258.71,253.027 259.876,252.36 261.5,252.5 Z"/></g>
<g><path style="opacity:1" fill="#1c9a9f" d="M 182.5,280.5 C 201.532,291.011 220.198,302.011 238.5,313.5C 240.034,315.342 239.7,316.675 237.5,317.5C 230.014,310.172 224.014,311.172 219.5,320.5C 221.91,321.383 224.243,322.55 226.5,324C 225.975,324.692 225.308,325.192 224.5,325.5C 221.295,323.536 217.962,321.869 214.5,320.5C 213.537,320.97 213.537,321.637 214.5,322.5C 196.569,312.558 178.902,302.224 161.5,291.5C 164.522,291.804 167.522,292.304 170.5,293C 170.043,293.414 169.709,293.914 169.5,294.5C 170.68,297.081 171.68,296.914 172.5,294C 175.167,293.333 177.833,293.333 180.5,294C 184.932,294.598 187.598,297.098 188.5,301.5C 189.365,302.583 190.365,302.749 191.5,302C 192.833,300 192.833,298 191.5,296C 186.622,292.771 181.288,290.437 175.5,289C 180.019,287.79 182.352,284.956 182.5,280.5 Z"/></g>
<g><path style="opacity:0.702" fill="#7fc0c6" d="M 197.5,385.5 C 191.464,385.36 185.464,385.693 179.5,386.5C 182.695,384.97 186.195,384.304 190,384.5C 192.69,384.503 195.19,384.836 197.5,385.5 Z"/></g>
<g><path style="opacity:1" fill="#8fc8cd" d="M 202.5,386.5 C 204.674,386.75 206.341,387.75 207.5,389.5C 206.153,388.829 204.986,388.829 204,389.5C 203.487,388.473 202.987,387.473 202.5,386.5 Z"/></g>
<g><path style="opacity:1" fill="#269ca1" d="M 290.5,386.5 C 303.171,386.333 315.838,386.5 328.5,387C 339.734,392.321 343.9,401.155 341,413.5C 338.833,421 334,425.833 326.5,428C 319.508,428.5 312.508,428.666 305.5,428.5C 305.5,436.167 305.5,443.833 305.5,451.5C 300.5,451.5 295.5,451.5 290.5,451.5C 290.5,429.833 290.5,408.167 290.5,386.5 Z M 325.5,400.5 C 328.528,405.856 327.862,410.689 323.5,415C 317.593,416.361 311.593,416.861 305.5,416.5C 305.5,410.5 305.5,404.5 305.5,398.5C 312.346,398.009 319.012,398.676 325.5,400.5 Z"/></g>
<g><path style="opacity:1" fill="#12989e" d="M 258.5,388.5 C 258.586,389.496 258.252,390.329 257.5,391C 263.239,394.121 265.072,398.954 263,405.5C 261.885,407.908 260.218,409.908 258,411.5C 257.833,408.667 256.333,407.167 253.5,407C 254.252,406.329 254.586,405.496 254.5,404.5C 255.171,401.014 254.171,398.347 251.5,396.5C 248.747,396.121 246.747,394.621 245.5,392C 249.657,390.238 253.99,389.071 258.5,388.5 Z"/></g>
<g><path style="opacity:0.514" fill="#a2d1d6" d="M 145.5,393.5 C 146.906,393.973 147.573,394.973 147.5,396.5C 146.094,396.027 145.427,395.027 145.5,393.5 Z"/></g>
<g><path style="opacity:1" fill="#279ca0" d="M 197.5,385.5 C 199.292,385.366 200.958,385.699 202.5,386.5C 202.987,387.473 203.487,388.473 204,389.5C 204.986,388.829 206.153,388.829 207.5,389.5C 212.783,392.719 216.117,397.386 217.5,403.5C 217.5,404.833 217.5,406.167 217.5,407.5C 213.167,407.5 208.833,407.5 204.5,407.5C 201.006,399.086 194.673,395.919 185.5,398C 180.6,399.902 177.433,403.402 176,408.5C 173.561,417.841 174.395,426.841 178.5,435.5C 177.118,435.598 175.618,435.598 174,435.5C 173.256,428.15 172.423,420.817 171.5,413.5C 172.167,412.167 172.833,410.833 173.5,409.5C 172.186,406.599 171.02,403.599 170,400.5C 169.333,401.833 168.667,403.167 168,404.5C 166.729,403.117 165.229,402.117 163.5,401.5C 166.271,393.728 171.604,388.728 179.5,386.5C 185.464,385.693 191.464,385.36 197.5,385.5 Z"/></g>
<g><path style="opacity:0.728" fill="#74c6cb" d="M 128.5,397.5 C 128.5,397.833 128.5,398.167 128.5,398.5C 122.833,398.5 117.167,398.5 111.5,398.5C 111.5,412.167 111.5,425.833 111.5,439.5C 116.833,439.5 122.167,439.5 127.5,439.5C 127.5,439.833 127.5,440.167 127.5,440.5C 121.833,440.5 116.167,440.5 110.5,440.5C 110.5,426.167 110.5,411.833 110.5,397.5C 116.5,397.5 122.5,397.5 128.5,397.5 Z"/></g>
<g><path style="opacity:0.489" fill="#86d2d3" d="M 325.5,400.5 C 319.012,398.676 312.346,398.009 305.5,398.5C 305.5,404.5 305.5,410.5 305.5,416.5C 304.51,410.355 304.177,404.022 304.5,397.5C 311.2,397.17 317.866,397.503 324.5,398.5C 324.863,399.183 325.196,399.85 325.5,400.5 Z"/></g>
<g><path style="opacity:1" fill="#15989d" d="M 141.5,390.5 C 140.527,392.3 139.527,394.134 138.5,396C 138.833,396.333 139.167,396.667 139.5,397C 137.667,397.5 136.5,398.667 136,400.5C 133.975,398.307 131.475,397.307 128.5,397.5C 122.5,397.5 116.5,397.5 110.5,397.5C 110.5,411.833 110.5,426.167 110.5,440.5C 116.167,440.5 121.833,440.5 127.5,440.5C 128.078,442.187 129.245,443.854 131,445.5C 132.011,444.663 133.178,444.33 134.5,444.5C 134.773,446.451 134.107,447.951 132.5,449C 132.833,449.333 133.167,449.667 133.5,450C 132.584,450.278 131.918,450.778 131.5,451.5C 120.167,451.5 108.833,451.5 97.5,451.5C 97.5,429.833 97.5,408.167 97.5,386.5C 109.838,386.333 122.171,386.5 134.5,387C 137.281,387.522 139.615,388.689 141.5,390.5 Z"/></g>
<g><path style="opacity:0.312" fill="#addde2" d="M 217.5,403.5 C 218.451,404.919 218.784,406.585 218.5,408.5C 213.637,408.819 208.97,408.486 204.5,407.5C 208.833,407.5 213.167,407.5 217.5,407.5C 217.5,406.167 217.5,404.833 217.5,403.5 Z"/></g>
<g><path style="opacity:1" fill="#1a999e" d="M 387.5,438.5 C 379.016,437.507 370.349,437.174 361.5,437.5C 360.911,440.504 359.911,443.337 358.5,446C 358.773,447.533 359.106,449.033 359.5,450.5C 354.652,451.814 349.652,451.814 344.5,450.5C 352.073,429.278 359.74,408.112 367.5,387C 370.333,386.833 373.167,386.667 376,386.5C 379.276,386.558 382.276,387.224 385,388.5C 392.308,409.426 399.808,430.26 407.5,451C 402.167,451.667 396.833,451.667 391.5,451C 389.665,446.996 388.332,442.83 387.5,438.5 Z M 376.5,403.5 C 377.899,410.361 379.899,417.028 382.5,423.5C 382.5,424.5 382.5,425.5 382.5,426.5C 377.381,427.103 372.715,426.436 368.5,424.5C 371.101,418.028 373.101,411.361 374.5,404.5C 375.167,404.167 375.833,403.833 376.5,403.5 Z"/></g>
<g><path style="opacity:0.141" fill="#8dedf1" d="M 376.5,403.5 C 375.833,403.833 375.167,404.167 374.5,404.5C 375.032,401.54 375.699,401.207 376.5,403.5 Z"/></g>
<g><path style="opacity:1" fill="#42a5a6" d="M 258.5,388.5 C 263.933,391.017 266.6,395.35 266.5,401.5C 266.331,408.659 262.998,413.659 256.5,416.5C 257.167,413.716 256.5,411.05 254.5,408.5C 253.808,409.025 253.308,409.692 253,410.5C 252.583,409.244 251.75,408.577 250.5,408.5C 251.5,406.833 252.833,405.5 254.5,404.5C 254.586,405.496 254.252,406.329 253.5,407C 256.333,407.167 257.833,408.667 258,411.5C 260.218,409.908 261.885,407.908 263,405.5C 265.072,398.954 263.239,394.121 257.5,391C 258.252,390.329 258.586,389.496 258.5,388.5 Z"/></g>
<g><path style="opacity:0.776" fill="#60b8b5" d="M 278.5,422.5 C 278.5,421.167 278.5,419.833 278.5,418.5C 274.731,418.244 271.064,418.577 267.5,419.5C 271.029,417.577 275.029,416.911 279.5,417.5C 279.784,419.415 279.451,421.081 278.5,422.5 Z"/></g>
<g><path style="opacity:1" fill="#37a1a3" d="M 258.5,388.5 C 253.99,389.071 249.657,390.238 245.5,392C 246.747,394.621 248.747,396.121 251.5,396.5C 246.677,396.327 244.677,398.661 245.5,403.5C 243.578,405.723 242.244,405.056 241.5,401.5C 242.183,398.587 243.517,396.087 245.5,394C 243.685,391.73 241.352,391.064 238.5,392C 237.671,393.816 236.837,395.649 236,397.5C 235.666,401.199 235.499,404.699 235.5,408C 236.328,410.449 237.994,412.783 240.5,415C 237.563,418.053 236.897,421.553 238.5,425.5C 239.541,423.009 240.374,423.009 241,425.5C 241.49,424.207 241.657,422.873 241.5,421.5C 243.199,421.66 244.866,421.494 246.5,421C 248.302,419.173 250.468,418.006 253,417.5C 251.594,419.317 250.427,421.483 249.5,424C 249.495,426.163 250.495,427.663 252.5,428.5C 251.637,429.726 251.637,431.06 252.5,432.5C 250.21,429.708 247.71,427.041 245,424.5C 237.417,429.004 236.583,434.504 242.5,441C 244.101,441.273 245.601,441.773 247,442.5C 248.356,441.62 249.856,441.286 251.5,441.5C 251.5,442.5 251.5,443.5 251.5,444.5C 249.738,444.357 248.071,444.691 246.5,445.5C 244.398,443.796 242.065,442.463 239.5,441.5C 238.833,440.5 238.167,439.5 237.5,438.5C 236.914,438.709 236.414,439.043 236,439.5C 236.186,435.516 236.186,431.516 236,427.5C 235.333,428.833 234.667,428.833 234,427.5C 233.784,425.616 233.117,423.949 232,422.5C 230.568,424.439 228.735,425.772 226.5,426.5C 227.072,424.745 227.906,423.078 229,421.5C 231.965,419.276 234.798,416.942 237.5,414.5C 230.512,405.617 230.845,397.117 238.5,389C 244.276,386.606 250.276,385.939 256.5,387C 257.416,387.278 258.082,387.778 258.5,388.5 Z"/></g>
<g><path style="opacity:1" fill="#259ca1" d="M 141.5,390.5 C 143.404,390.738 144.738,391.738 145.5,393.5C 145.427,395.027 146.094,396.027 147.5,396.5C 150.577,400.545 152.411,405.211 153,410.5C 155.287,424.434 151.787,436.601 142.5,447C 139.029,449.072 135.362,450.572 131.5,451.5C 131.918,450.778 132.584,450.278 133.5,450C 133.167,449.667 132.833,449.333 132.5,449C 134.107,447.951 134.773,446.451 134.5,444.5C 133.178,444.33 132.011,444.663 131,445.5C 129.245,443.854 128.078,442.187 127.5,440.5C 127.5,440.167 127.5,439.833 127.5,439.5C 132.513,437.986 135.68,434.652 137,429.5C 139.887,419.398 138.721,409.898 133.5,401C 131.807,400.153 130.14,399.32 128.5,398.5C 128.5,398.167 128.5,397.833 128.5,397.5C 131.475,397.307 133.975,398.307 136,400.5C 136.5,398.667 137.667,397.5 139.5,397C 139.167,396.667 138.833,396.333 138.5,396C 139.527,394.134 140.527,392.3 141.5,390.5 Z"/></g>
<g><path style="opacity:0.673" fill="#74bbc0" d="M 382.5,423.5 C 383.434,424.568 383.768,425.901 383.5,427.5C 378.167,427.5 372.833,427.5 367.5,427.5C 367.263,426.209 367.596,425.209 368.5,424.5C 372.715,426.436 377.381,427.103 382.5,426.5C 382.5,425.5 382.5,424.5 382.5,423.5 Z"/></g>
<g><path style="opacity:0.28" fill="#aee4e7" d="M 204.5,429.5 C 208.97,428.514 213.637,428.181 218.5,428.5C 218.768,430.099 218.434,431.432 217.5,432.5C 217.5,431.5 217.5,430.5 217.5,429.5C 213.167,429.5 208.833,429.5 204.5,429.5 Z"/></g>
<g><path style="opacity:1" fill="#19999f" d="M 245.5,403.5 C 246.517,405.911 248.184,407.578 250.5,408.5C 251.75,408.577 252.583,409.244 253,410.5C 253.308,409.692 253.808,409.025 254.5,408.5C 256.5,411.05 257.167,413.716 256.5,416.5C 258.77,420.108 261.437,423.442 264.5,426.5C 265.952,424.359 266.952,422.025 267.5,419.5C 271.064,418.577 274.731,418.244 278.5,418.5C 278.5,419.833 278.5,421.167 278.5,422.5C 278.02,427.96 276.02,432.793 272.5,437C 275.715,440.709 278.715,444.542 281.5,448.5C 281.414,449.496 281.748,450.329 282.5,451C 281.906,451.464 281.239,451.631 280.5,451.5C 276.154,451.666 271.821,451.499 267.5,451C 266.315,449.647 264.981,448.48 263.5,447.5C 254.979,453.567 245.646,455.067 235.5,452C 225.212,445.966 222.212,437.466 226.5,426.5C 228.735,425.772 230.568,424.439 232,422.5C 233.117,423.949 233.784,425.616 234,427.5C 234.667,428.833 235.333,428.833 236,427.5C 236.186,431.516 236.186,435.516 236,439.5C 236.414,439.043 236.914,438.709 237.5,438.5C 238.167,439.5 238.833,440.5 239.5,441.5C 242.065,442.463 244.398,443.796 246.5,445.5C 248.071,444.691 249.738,444.357 251.5,444.5C 251.5,443.5 251.5,442.5 251.5,441.5C 253.1,440.356 254.767,439.189 256.5,438C 255.035,436.226 253.702,434.392 252.5,432.5C 251.637,431.06 251.637,429.726 252.5,428.5C 250.495,427.663 249.495,426.163 249.5,424C 250.427,421.483 251.594,419.317 253,417.5C 250.468,418.006 248.302,419.173 246.5,421C 244.866,421.494 243.199,421.66 241.5,421.5C 241.657,422.873 241.49,424.207 241,425.5C 240.374,423.009 239.541,423.009 238.5,425.5C 236.897,421.553 237.563,418.053 240.5,415C 237.994,412.783 236.328,410.449 235.5,408C 235.499,404.699 235.666,401.199 236,397.5C 236.837,395.649 237.671,393.816 238.5,392C 241.352,391.064 243.685,391.73 245.5,394C 243.517,396.087 242.183,398.587 241.5,401.5C 242.244,405.056 243.578,405.723 245.5,403.5 Z M 252.5,432.5 C 253.702,434.392 255.035,436.226 256.5,438C 254.767,439.189 253.1,440.356 251.5,441.5C 249.856,441.286 248.356,441.62 247,442.5C 245.601,441.773 244.101,441.273 242.5,441C 236.583,434.504 237.417,429.004 245,424.5C 247.71,427.041 250.21,429.708 252.5,432.5 Z"/></g>
<g><path style="opacity:1" fill="#239ca0" d="M 178.5,435.5 C 185.082,441.356 192.249,442.023 200,437.5C 201.795,434.901 203.295,432.234 204.5,429.5C 208.833,429.5 213.167,429.5 217.5,429.5C 217.5,430.5 217.5,431.5 217.5,432.5C 215.69,441.817 210.357,448.317 201.5,452C 174.92,457.092 160.92,446.092 159.5,419C 159.616,412.762 160.949,406.928 163.5,401.5C 165.229,402.117 166.729,403.117 168,404.5C 168.667,403.167 169.333,401.833 170,400.5C 171.02,403.599 172.186,406.599 173.5,409.5C 172.833,410.833 172.167,412.167 171.5,413.5C 172.423,420.817 173.256,428.15 174,435.5C 175.618,435.598 177.118,435.598 178.5,435.5 Z"/></g>
<g><path style="opacity:1" fill="#53aaac" d="M 387.5,438.5 C 379.826,438.334 372.159,438.5 364.5,439C 362.716,442.876 361.049,446.709 359.5,450.5C 359.106,449.033 358.773,447.533 358.5,446C 359.911,443.337 360.911,440.504 361.5,437.5C 370.349,437.174 379.016,437.507 387.5,438.5 Z"/></g>
<g><path style="opacity:0.78" fill="#b7dbe0" d="M 281.5,448.5 C 283.104,449.287 283.771,450.62 283.5,452.5C 282.209,452.737 281.209,452.404 280.5,451.5C 281.239,451.631 281.906,451.464 282.5,451C 281.748,450.329 281.414,449.496 281.5,448.5 Z"/></g>
</svg>
